<svg xmlns="http://www.w3.org/2000/svg" width="513.6" height="269.528" viewBox="0 0 513.6 269.528">
  <g id="Group_26" data-name="Group 26" transform="translate(0 -120.872)">
    <g id="Group_15" data-name="Group 15">
      <path id="Path_1" data-name="Path 1" d="M245.6,241.6H150.4a8,8,0,0,1,0-16h95.2a8,8,0,0,1,0,16Z" fill="#f9b11c"/>
    </g>
    <g id="Group_16" data-name="Group 16">
      <path id="Path_2" data-name="Path 2" d="M64,238.4a2.939,2.939,0,0,1-2.4-.8l-28-10.4c-6.4-2.4-12-8.8-12.8-15.2v-.8l-.8-9.6a19.158,19.158,0,0,1,8-18.4l.8-.8v-1.6l2.4-10.4c.8-8.8,9.6-16,20-16h12c12-5.6,21.6-9.6,29.6-13.6,22.4-11.2,36.8-17.6,64-19.2,34.4-4,49.6,8.8,76,30.4l7.2,6.4,1.6.8h1.6c40.8-2.4,75.2,3.2,103.2,18.4,6.4,4,10.4,10.4,10.4,17.6v22.4a19.806,19.806,0,0,1-20,20H332a8,8,0,0,1,0-16h4a3.733,3.733,0,0,0,4-4V195.2a4.287,4.287,0,0,0-2.4-3.2c-25.6-13.6-56-19.2-93.6-16.8a16.906,16.906,0,0,1-14.4-4l-8-6.4c-24.8-20.8-36-29.6-64-26.4-24.8.8-36.8,7.2-58.4,17.6a297.455,297.455,0,0,1-30.4,13.6,15.822,15.822,0,0,1-8,1.6H50.4c-1.6,0-4,1.6-4,2.4L44,184c0,5.6-3.2,9.6-7.2,12.8a4.156,4.156,0,0,0-1.6,3.2v.8l.8,8.8c.8,1.6,1.6,3.2,3.2,3.2l28,10.4c4,1.6,6.4,6.4,4.8,10.4A8.8,8.8,0,0,1,64,238.4Z" fill="#f9b11c"/>
    </g>
    <g id="Group_17" data-name="Group 17">
      <path id="Path_3" data-name="Path 3" d="M288,257.6a34.4,34.4,0,1,1,34.4-34.4A34.145,34.145,0,0,1,288,257.6Zm0-52.8a18.4,18.4,0,1,0,18.4,18.4A18.1,18.1,0,0,0,288,204.8Z" fill="#f9b11c"/>
    </g>
    <g id="Group_18" data-name="Group 18">
      <path id="Path_4" data-name="Path 4" d="M107.2,257.6a34.4,34.4,0,1,1,34.4-34.4A34.145,34.145,0,0,1,107.2,257.6Zm0-52.8a18.4,18.4,0,1,0,18.4,18.4A18.1,18.1,0,0,0,107.2,204.8Z" fill="#f9b11c"/>
    </g>
    <g id="Group_19" data-name="Group 19">
      <path id="Path_5" data-name="Path 5" d="M343.2,348H192a8,8,0,0,1,0-16H343.2a8,8,0,1,1,0,16Z" fill="#f9b11c"/>
    </g>
    <g id="Group_20" data-name="Group 20">
      <path id="Path_6" data-name="Path 6" d="M58.4,348H31.2A31.238,31.238,0,0,1,0,316.8V292a32.094,32.094,0,0,1,32-32H375.2V156a32.094,32.094,0,0,1,32-32h37.6c16,0,29.6,9.6,36,24l4.8,11.2,24,58.4c1.6,2.4,1.6,5.6,2.4,7.2,0,.8,0,1.6.8,1.6,0,.8.8,1.6.8,2.4v86.4a30.74,30.74,0,0,1-31.2,31.2h-4.8a8,8,0,0,1,0-16h4.8c8,0,15.2-7.2,15.2-15.2V230.4a2.939,2.939,0,0,0-.8-2.4c0-1.6-.8-2.4-.8-4l-28.8-70.4c-4-8.8-12-14.4-21.6-14.4H408a16.047,16.047,0,0,0-16,16v112a7.558,7.558,0,0,1-8,8H32a16.047,16.047,0,0,0-16,16V316c0,8,7.2,15.2,15.2,15.2H58.4a7.558,7.558,0,0,1,8,8C66.4,344,63.2,348,58.4,348Z" fill="#f9b11c"/>
    </g>
    <g id="Group_21" data-name="Group 21">
      <path id="Path_7" data-name="Path 7" d="M479.2,237.6H432a23.217,23.217,0,0,1-23.2-23.2V177.6A23.217,23.217,0,0,1,432,154.4h20a8,8,0,0,1,0,16H432a7.14,7.14,0,0,0-7.2,7.2v36.8a7.14,7.14,0,0,0,7.2,7.2h47.2a8,8,0,0,1,0,16Z" fill="#f9b11c"/>
    </g>
    <g id="Group_22" data-name="Group 22">
      <path id="Path_8" data-name="Path 8" d="M416.8,279.2a7.558,7.558,0,0,1-8-8V256.8a8,8,0,0,1,16,0v14.4A7.558,7.558,0,0,1,416.8,279.2Z" fill="#f9b11c"/>
    </g>
    <g id="Group_23" data-name="Group 23">
      <path id="Path_9" data-name="Path 9" d="M491.2,305.6h-.8a38.1,38.1,0,0,1-27.2-11.2c-5.6-5.6-7.2-14.4-4-22.4a20.79,20.79,0,0,1,19.2-12.8h12.8c12,0,20.8,8.8,20.8,20.8v4.8c0,12-8.8,20.8-20.8,20.8Zm-12.8-30.4a5.4,5.4,0,0,0-4.8,3.2,3.769,3.769,0,0,0,.8,4.8,23.784,23.784,0,0,0,16,6.4h.8a5.162,5.162,0,0,0,4.8-4.8V280a5.162,5.162,0,0,0-4.8-4.8Z" fill="#f9b11c"/>
    </g>
    <g id="Group_24" data-name="Group 24">
      <path id="Path_10" data-name="Path 10" d="M409.6,390.4A50.4,50.4,0,1,1,460,340,50.19,50.19,0,0,1,409.6,390.4Zm0-84.8c-18.4,0-34.4,16-34.4,34.4s16,34.4,34.4,34.4S444,358.4,444,340C444,320,429.6,305.6,409.6,305.6Z" fill="#f9b11c"/>
    </g>
    <g id="Group_25" data-name="Group 25">
      <path id="Path_11" data-name="Path 11" d="M124.8,390.4A50.4,50.4,0,1,1,175.2,340,50.19,50.19,0,0,1,124.8,390.4Zm0-84.8c-18.4,0-34.4,16-34.4,34.4s16,34.4,34.4,34.4,34.4-16,34.4-34.4A34.145,34.145,0,0,0,124.8,305.6Z" fill="#f9b11c"/>
    </g>
  </g>
</svg>
