<svg id="Group_2" data-name="Group 2" xmlns="http://www.w3.org/2000/svg" width="512" height="512" viewBox="0 0 512 512">
  <g id="Group_1" data-name="Group 1">
    <path id="Path_1" data-name="Path 1" d="M165.99,434.521A197.806,197.806,0,0,0,256,455.887c110.218,0,199.887-89.669,199.887-199.887a198.112,198.112,0,0,0-19.241-85.672,7.5,7.5,0,0,0-13.549,6.437A183.229,183.229,0,0,1,440.887,256c0,101.947-82.94,184.887-184.887,184.887a182.94,182.94,0,0,1-83.247-19.755,186.6,186.6,0,0,1-52.794-39.961l16.863,5.621a7.5,7.5,0,1,0,4.743-14.231L100.339,358.82a7.5,7.5,0,0,0-9.8,8.176l6.871,48.1a7.5,7.5,0,0,0,7.416,6.44,7.624,7.624,0,0,0,1.07-.076,7.5,7.5,0,0,0,6.364-8.485l-3.048-21.331a201.688,201.688,0,0,0,56.774,42.88Z" fill="#f9b11c"/>
    <path id="Path_2" data-name="Path 2" d="M256,71.113a183.79,183.79,0,0,1,136.073,59.726l-16.895-5.632a7.5,7.5,0,0,0-4.743,14.231l41.226,13.742a7.5,7.5,0,0,0,9.8-8.176l-6.871-48.1a7.5,7.5,0,0,0-14.849,2.121l3.041,21.288A198.7,198.7,0,0,0,256,56.113C145.782,56.113,56.113,145.782,56.113,256a198.112,198.112,0,0,0,19.241,85.672A7.5,7.5,0,1,0,88.9,335.235,183.229,183.229,0,0,1,71.113,256c0-101.946,82.94-184.886,184.887-184.886Z" fill="#f9b11c"/>
    <path id="Path_3" data-name="Path 3" d="M333.5,337.667h.066a7.5,7.5,0,0,0,7.5-7.436c.036-4.15.157-18.42.283-36.344h11.516a7.5,7.5,0,0,0,0-15H341.447c.237-37.409.415-81.971-.037-87.4-.672-8.062-5.246-14.554-11.652-16.538-2.987-.926-10.757-2.063-18.4,7.315-8.326,10.214-53.129,91.285-58.21,100.5a7.5,7.5,0,0,0,6.566,11.123h66.632c-.088,12.679-.186,25.082-.281,36.215a7.5,7.5,0,0,0,7.435,7.565Zm-61.062-58.78c19.494-35.112,45.45-80.887,50.547-87.142a9.174,9.174,0,0,1,2.425-2.253,6.508,6.508,0,0,1,1.052,3.245c.367,4.4.244,44.644-.016,86.15Z" fill="#f9b11c"/>
    <path id="Path_4" data-name="Path 4" d="M212.357,251.978c-23.607,33.729-37.7,52.188-45.277,62.1-8.794,11.514-10.624,13.911-9.167,18.65a8.293,8.293,0,0,0,5.418,5.427c.991.33,2.93.979,31.038.979,11.085,0,26.247-.1,47.017-.362a7.5,7.5,0,0,0-.189-15c-23.184.292-48.552.435-62.864.282l.666-.873c7.64-10,21.86-28.623,45.646-62.607,8.792-12.563,14.489-24.274,16.932-34.809a7.241,7.241,0,0,0,.133-.744l.733-5.738a7.371,7.371,0,0,0,.061-.951,45.46,45.46,0,0,0-90.059-8.8,7.5,7.5,0,0,0,14.719,2.891,30.46,30.46,0,0,1,60.337,5.46l-.62,4.85c-2.056,8.573-6.942,18.408-14.524,29.242Z" fill="#f9b11c"/>
    <path id="Path_5" data-name="Path 5" d="M448.275,87.077a7.5,7.5,0,1,0-11.264,9.9,241.159,241.159,0,1,1-21.993-21.992,7.5,7.5,0,0,0,9.9-11.265,256.15,256.15,0,1,0,23.353,23.353Z" fill="#f9b11c"/>
  </g>
</svg>
