<svg xmlns="http://www.w3.org/2000/svg" width="458.501" height="513.521" viewBox="0 0 458.501 513.521">
  <g id="Group_1" data-name="Group 1" transform="translate(-7 -4)">
    <g id="Idea" transform="translate(7 4)">
      <path id="Path_1" data-name="Path 1" d="M274.854,51.784a155.836,155.836,0,1,0-177.3,253.573v91.862a18.358,18.358,0,0,0,18.34,18.34h18.34V433.9a18.358,18.358,0,0,0,18.34,18.34h36.68a18.358,18.358,0,0,0,18.34-18.34v-18.34h18.34a18.358,18.358,0,0,0,18.34-18.34V305.362A155.744,155.744,0,0,0,274.854,51.784ZM225.932,342.2v18.34H115.892V342.2Zm-36.666,91.7H152.572v-18.34h36.685Zm9.156-36.68h-82.53v-18.34h110.04v18.34Zm32.659-105.71a9.161,9.161,0,0,0-5.149,8.238v24.112h-45.85V281.806l24.823-24.824a9.169,9.169,0,1,0-12.967-12.967l-21.026,21.027-21.027-21.026a9.169,9.169,0,1,0-12.967,12.967l24.824,24.823v42.053h-45.85V299.747a9.161,9.161,0,0,0-5.149-8.238A137.459,137.459,0,0,1,155.152,31.3,144.2,144.2,0,0,1,171.1,30.4a135.974,135.974,0,0,1,91.521,35.043,137.411,137.411,0,0,1-31.54,226.058Z" transform="translate(58.338 61.282)" fill="#f9b11c"/>
      <path id="Path_2" data-name="Path 2" d="M40.17,59.02a9.17,9.17,0,0,0,9.17-9.17V13.17a9.17,9.17,0,1,0-18.34,0V49.85A9.17,9.17,0,0,0,40.17,59.02Z" transform="translate(189.081 -4)" fill="#f9b11c"/>
      <path id="Path_3" data-name="Path 3" d="M42.654,52.621A9.169,9.169,0,1,0,55.622,39.653L29.683,13.716A9.169,9.169,0,1,0,16.715,26.683Z" transform="translate(50.43 53.43)" fill="#f9b11c"/>
      <path id="Path_4" data-name="Path 4" d="M52.85,28H16.17a9.17,9.17,0,0,0,0,18.34H52.85a9.17,9.17,0,1,0,0-18.34Z" transform="translate(-7 192.081)" fill="#f9b11c"/>
      <path id="Path_5" data-name="Path 5" d="M42.654,44.829,16.716,70.767A9.169,9.169,0,1,0,29.683,83.735L55.621,57.8A9.169,9.169,0,1,0,42.653,44.828Z" transform="translate(50.43 307.622)" fill="#f9b11c"/>
      <path id="Path_6" data-name="Path 6" d="M73.767,13.716,47.829,39.654A9.169,9.169,0,1,0,60.8,52.622L86.734,26.683A9.169,9.169,0,1,0,73.766,13.715Z" transform="translate(304.622 53.43)" fill="#f9b11c"/>
      <path id="Path_7" data-name="Path 7" d="M60.8,44.829A9.169,9.169,0,1,0,47.828,57.8L73.767,83.734A9.169,9.169,0,1,0,86.735,70.766Z" transform="translate(304.622 307.622)" fill="#f9b11c"/>
      <path id="Path_8" data-name="Path 8" d="M96.85,28H60.17a9.17,9.17,0,0,0,0,18.34H96.85a9.17,9.17,0,0,0,0-18.34Z" transform="translate(352.481 192.081)" fill="#f9b11c"/>
    </g>
  </g>
</svg>
