<svg xmlns="http://www.w3.org/2000/svg" width="521.692" height="417.63" viewBox="0 0 521.692 417.63">
  <g id="Group_14" data-name="Group 14" transform="translate(0 0.009)">
    <g id="Page-1" transform="translate(0 -0.009)">
      <g id="_024---Movers" data-name="024---Movers">
        <path id="Shape" d="M467.445,313.652l-15.459-60.784-8.547-142.445c0-.247-.087-.494-.1-.741a58.975,58.975,0,0,0,21.735-71.349C454.42,12.493,426.934-2.676,398.868,1.8S349.636,29.189,347.887,57s16.385,53.11,43.678,60.926l1.93,32.288-39.127,38.347H339.1V69.238a17.219,17.219,0,0,0-17.39-17.043H199.983a17.219,17.219,0,0,0-17.39,17.043v119.3H167.316l-39.127-38.347L130.1,117.9C157.4,110.091,175.534,84.8,173.787,56.98S150.872,6.242,122.806,1.769s-55.553,10.7-66.2,36.537a58.975,58.975,0,0,0,21.738,71.35c0,.213-.078.426-.087.639L69.708,252.868,54.248,313.652,5.218,377.716a25.23,25.23,0,0,0,5.217,35.79,26.436,26.436,0,0,0,36.518-5.113l52.169-68.121a24.731,24.731,0,0,0,4.469-9.152l5.286-20.775,21.546,24.133v58.577c0,14.119,11.678,25.565,26.085,25.565s26.085-11.445,26.085-25.565V324.883a25.925,25.925,0,0,0-6.417-16.864l-53.821-60.264,1.739-29.237,13.912,13.634a26.2,26.2,0,0,0,18.5,7.516h60.864c14.406,0,26.085-11.445,26.085-25.565a24.835,24.835,0,0,0-1.6-8.521h37.979a24.837,24.837,0,0,0-1.6,8.521c0,14.119,11.678,25.565,26.085,25.565h60.864a26.205,26.205,0,0,0,18.442-7.482l13.912-13.634,1.739,29.246-53.908,60.4a25.777,25.777,0,0,0-6.269,16.685v68.172c0,14.119,11.678,25.565,26.085,25.565s26.085-11.445,26.085-25.565V334.478l21.581-24.133,5.269,20.707a24.679,24.679,0,0,0,4.452,9.169l52.169,68.172a26.361,26.361,0,0,0,44.2-3.906,25.142,25.142,0,0,0-2.463-26.771ZM365.185,60.716c0-23.531,19.464-42.608,43.474-42.608s43.474,19.076,43.474,42.608-19.464,42.608-43.474,42.608C384.66,103.3,365.213,84.237,365.185,60.716Zm-86.948,8.522V95.919l-12.564-8.206a8.842,8.842,0,0,0-9.651,0l-12.564,8.206V69.238Zm-78.254,0h26.085v42.608a8.5,8.5,0,0,0,4.593,7.515,8.847,8.847,0,0,0,8.928-.425l21.259-13.907,21.259,13.89a8.845,8.845,0,0,0,8.92.429,8.5,8.5,0,0,0,4.6-7.5V69.238H321.71v119.3H199.983ZM69.56,60.716c0-23.531,19.464-42.608,43.474-42.608s43.474,19.076,43.474,42.608-19.464,42.608-43.474,42.608C89.036,103.3,69.589,84.237,69.56,60.716ZM86.672,327.073A8.2,8.2,0,0,1,85.211,330L33.042,398.168a9.071,9.071,0,0,1-12.173,1.7,8.41,8.41,0,0,1-1.739-11.93L69.212,322.5a8.4,8.4,0,0,0,1.478-3.051l10.26-40.315,13.912,15.6Zm130.7-104.448H156.508a8.851,8.851,0,0,1-6.147-2.488l-27.18-26.647c-.1-.111-.209-.2-.313-.3l-10.834-10.618a8.813,8.813,0,0,0-8.456-2.324,8.61,8.61,0,0,0-6.21,6.086,8.409,8.409,0,0,0,2.371,8.287l7.947,7.789-2.9,47.72v.06a5.679,5.679,0,0,0,.1.673,8.2,8.2,0,0,0,.374,2.556,8.021,8.021,0,0,0,1.2,2.054,9.035,9.035,0,0,0,.461.792l56.056,62.761a9.054,9.054,0,0,1,2.226,5.854v68.172a8.7,8.7,0,0,1-17.39,0V331.274a8.422,8.422,0,0,0-2.156-5.616l-56.577-63.3a8.6,8.6,0,0,1-2.043-7,2.283,2.283,0,0,1,0-.6v-.111l8.225-136.906a61.494,61.494,0,0,0,17.329,2.556l-1.443,24.141c-.2.17-.452.239-.643.418a8.4,8.4,0,0,0,0,12.049l2.243,2.207c.078.085.174.162.252.247l44.587,43.69a8.785,8.785,0,0,0,6.147,2.488h53.638a8.523,8.523,0,1,1,0,17.043ZM376.036,325.658a8.422,8.422,0,0,0-2.156,5.616v61.781a8.7,8.7,0,0,1-17.39,0V324.883a8.907,8.907,0,0,1,2.113-5.633l56.169-62.9c.209-.239.278-.537.461-.784a6.554,6.554,0,0,0,1.574-4.644,6.215,6.215,0,0,0,.1-.682v-.06l-2.9-47.72,7.947-7.789a8.423,8.423,0,0,0,2.273-8.243,8.627,8.627,0,0,0-6.147-6.05,8.834,8.834,0,0,0-8.42,2.193l-10.834,10.618c-.1.1-.217.187-.313.3l-27.18,26.647a8.851,8.851,0,0,1-6.147,2.488H304.321a8.523,8.523,0,1,1,0-17.043h53.656a8.785,8.785,0,0,0,6.147-2.488L408.7,159.412c.087-.094.183-.17.27-.264l2.235-2.2a8.4,8.4,0,0,0,0-12.049c-.191-.179-.435-.247-.643-.409l-1.435-24.124a61.433,61.433,0,0,0,17.32-2.556l8.225,136.906v.111a1.959,1.959,0,0,0,0,.6,8.615,8.615,0,0,1-2.017,6.979Zm124.788,74.214a9.1,9.1,0,0,1-12.173-1.7l-52.169-68.215A8.184,8.184,0,0,1,435.039,327l-8.208-32.254,13.955-15.6,10.251,40.307a8.409,8.409,0,0,0,1.478,3.051l50.047,65.445A8.41,8.41,0,0,1,500.824,399.872Z" transform="translate(0 -0.991)" fill="#f9b11c"/>
      </g>
    </g>
  </g>
</svg>
