<svg xmlns="http://www.w3.org/2000/svg" width="354.454" height="400" viewBox="0 0 354.454 400">
  <g id="Group_1" data-name="Group 1" transform="translate(-22.773)">
    <path id="Path_1" data-name="Path 1" d="M142.966,360.95H105.034a6,6,0,1,0,0,12h37.932a6,6,0,0,0,0-12Z" fill="#f9b11c"/>
    <path id="Path_2" data-name="Path 2" d="M147.781,183.564l-33.253,36.873c-13.886-16.537-13.878-17.5-17.365-17.656-3.511-.158-3.107.356-22.66,19.908a6,6,0,0,0,0,8.485c36.69,36.69,34.543,35.483,37.968,35.483a6,6,0,0,0,4.241-1.757c61.609-61.608,58.583-57.531,58.544-61.093-.036-3.365-.582-3.055-18.87-20.559a6,6,0,0,0-8.605.316ZM112.47,252.172l-25.239-25.24,9.285-9.286c14.342,17.083,14.224,17.929,17.85,17.929a6,6,0,0,0,4.457-1.982l33.73-37.4,8.123,7.775Z" fill="#f9b11c"/>
    <path id="Path_3" data-name="Path 3" d="M124,148.4a75.72,75.72,0,1,0,75.719,75.72A75.72,75.72,0,0,0,124,148.4Zm0,139.44a63.72,63.72,0,1,1,63.719-63.72A63.72,63.72,0,0,1,124,287.84Z" fill="#f9b11c"/>
    <path id="Path_4" data-name="Path 4" d="M345.848,99.419H311.059a6,6,0,0,0,0,12h34.789a6,6,0,1,0,0-12Z" fill="#f9b11c"/>
    <path id="Path_5" data-name="Path 5" d="M286,99.419H251.215a6,6,0,0,0,0,12H286a6,6,0,1,0,0-12Z" fill="#f9b11c"/>
    <path id="Path_6" data-name="Path 6" d="M223.577,99.419H188.788a6,6,0,0,0,0,12h34.789a6,6,0,1,0,0-12Z" fill="#f9b11c"/>
    <path id="Path_7" data-name="Path 7" d="M339.888,147.765h9.323a28.041,28.041,0,0,0,28.016-28V28.016A28.047,28.047,0,0,0,349.211,0H188a28.041,28.041,0,0,0-28,28.016V58.022H53.932a31.189,31.189,0,0,0-31.159,31.15V368.84A31.2,31.2,0,0,0,53.932,400H194.071a31.2,31.2,0,0,0,31.16-31.16v-45.1h90.246a24.439,24.439,0,0,0,24.411-24.411Zm-12,91.1v17.68H225.231V242.259c99.159,0,89.512.009,90.8-.019a24.418,24.418,0,0,0,11.857-3.378ZM34.773,111.413H160v8.349a28.035,28.035,0,0,0,28,28h25.231V336.91H34.773Zm280.7,118.841H225.231V173.42H327.888v44.423a12.424,12.424,0,0,1-12.411,12.411Zm12.411-68.834H225.231V147.765H327.888Zm21.323-25.655H188a16.021,16.021,0,0,1-16-16V79.887H365.227v39.875a16.028,16.028,0,0,1-16.016,16ZM172,67.887V43.511H365.222V67.887ZM188,12H349.211a16.034,16.034,0,0,1,16.016,16.016v3.5H172v-3.5A16.028,16.028,0,0,1,188,12ZM53.932,70.022H160V99.413H34.773V89.172a19.177,19.177,0,0,1,19.159-19.15ZM194.071,388H53.932a19.182,19.182,0,0,1-19.159-19.16V348.91H213.231v19.93A19.182,19.182,0,0,1,194.071,388Zm121.406-76.258H225.231v-43.2H327.888v30.789a12.424,12.424,0,0,1-12.411,12.411Z" fill="#f9b11c"/>
  </g>
</svg>
