<svg xmlns="http://www.w3.org/2000/svg" width="360.141" height="387.053" viewBox="0 0 360.141 387.053">
  <g id="Group_2" data-name="Group 2" transform="translate(-2.13 -3.313)">
    <g id="Group_1" data-name="Group 1" transform="translate(2.13 3.313)">
      <path id="Path_1" data-name="Path 1" d="M10.05,295.17l157.222,93.2c7.292,4.367,16.446,1.338,20.3-6.834l40.112-84.093,6.481,4.171a6.689,6.689,0,0,1,2.273,2.535l1.523,2.938-24.713,32.278A11.823,11.823,0,0,0,213.728,354l24.1,27.2c4.952,5.582,13.378,3.634,15.947-3.64L272,325.964l6.4,4.122a13.166,13.166,0,0,0,14.43,0l6.393-4.116,18.221,51.608c2.586,7.3,11.028,9.173,15.936,3.64L357.55,354a11.683,11.683,0,0,0,.482-14.64L333.3,307.049l1.5-2.895a6.72,6.72,0,0,1,2.279-2.541l9.658-6.217a16.537,16.537,0,0,0,7.209-13.919V269.049a7.6,7.6,0,0,1,.827-3.457l5.577-10.767a17.738,17.738,0,0,0,0-16.081l-5.577-10.761a7.548,7.548,0,0,1-.827-3.457V212.1a16.534,16.534,0,0,0-7.209-13.919l-9.658-6.217a6.689,6.689,0,0,1-2.273-2.535l-5.571-10.761a14.254,14.254,0,0,0-12.491-8.037H305.589a5.761,5.761,0,0,1-3.1-.928l-9.653-6.217h-.005c-.323-.208-.685-.287-1.013-.464l3.446-7.182a18.384,18.384,0,0,0,.926-13.339L284.9,106.316c21.469,6.01,58.941,9.259,65.488-13.021,7.472-25.425-33.231-49.617-56.438-58.1a130.755,130.755,0,0,0-33.609-7.628l-4.038-12.942C253.742,6.3,246.028,1.647,238.271,3.864L120.926,38.554a15.394,15.394,0,0,0-9.362,8.318L3.854,272.573C.02,280.7,2.8,290.834,10.05,295.17Zm236.082,79.036a1.422,1.422,0,0,1-2.449.556l-24.1-27.209a1.813,1.813,0,0,1-.077-2.241l22.812-29.792a13.97,13.97,0,0,0,12.036,7.421h.121c.011,0,.027.006.038.006h9.724Zm105.578-26.653-24.165,27.221a1.422,1.422,0,0,1-2.443-.556L307,322.941h9.74c.038,0,.071-.018.11-.018,5.166-.031,9.85-3.493,12.1-7.457l22.845,29.829A1.809,1.809,0,0,1,351.711,347.554ZM298.379,177.626a13.345,13.345,0,0,0,7.209,2.162h11.148a6.143,6.143,0,0,1,5.374,3.457l5.577,10.767a15.4,15.4,0,0,0,5.276,5.881l9.658,6.217a7.1,7.1,0,0,1,3.1,5.985v12.429a17.5,17.5,0,0,0,1.934,8.037l5.577,10.755a7.686,7.686,0,0,1,0,6.932l-5.577,10.761a17.568,17.568,0,0,0-1.934,8.037v12.429a7.116,7.116,0,0,1-3.1,5.985l-9.658,6.217a15.47,15.47,0,0,0-5.281,5.888l-5.571,10.761a6.12,6.12,0,0,1-5.341,3.451h-11.2a14.385,14.385,0,0,0-7.193,2.162l-9.653,6.211a5.679,5.679,0,0,1-6.207,0l-9.653-6.205a14.228,14.228,0,0,0-7.209-2.168H254.471a6.138,6.138,0,0,1-5.336-3.451c-.564-1.093-5.911-11.415-5.577-10.761a15.383,15.383,0,0,0-5.281-5.888l-9.658-6.217a7.1,7.1,0,0,1-3.1-5.985V269.049a17.4,17.4,0,0,0-1.939-8.037l-5.571-10.761a7.639,7.639,0,0,1,0-6.926l5.566-10.755a17.442,17.442,0,0,0,1.939-8.044V212.1a7.108,7.108,0,0,1,3.1-5.985l9.653-6.217a15.382,15.382,0,0,0,5.281-5.888l5.577-10.767a6.124,6.124,0,0,1,5.374-3.451h11.143a13.293,13.293,0,0,0,7.209-2.162l9.658-6.217a5.7,5.7,0,0,1,6.207,0Zm-81.906,50.356L210.9,238.744a17.69,17.69,0,0,0-1.49,11.787l-42.786,89.694a2.7,2.7,0,0,1-3.862,1.283L47.5,273.171a3.385,3.385,0,0,1-1.156-4.318L122.958,108.16a2.776,2.776,0,0,1,3.944-1.338l115.242,68.361a2.966,2.966,0,0,1,1.211,1.539,15.412,15.412,0,0,0-1.342,1.942l-5.577,10.761a6.689,6.689,0,0,1-2.273,2.535l-9.647,6.217A16.512,16.512,0,0,0,217.3,212.1v12.429a7.516,7.516,0,0,1-.827,3.457ZM291.4,43.9c17.3,6.321,56.536,28.32,51.184,46.539-5.084,17.272-44.758,10.627-60.952,5.375L263.307,37.051A126.426,126.426,0,0,1,291.4,43.9ZM11.119,276.854,118.828,51.178a6.924,6.924,0,0,1,4.213-3.768l117.3-34.678c3.539-.983,7.04,1.1,8.206,4.886l23.266,74.615c-12.962-5.271-23.683-11.818-31.55-18.512,4.837-11.812.307-24.821-9.171-30.439-10.19-6.052-22.943-1.869-28.482,9.741-5.44,11.409-1.622,25.621,8.694,31.728,7.489,4.434,17.147,3.738,24.225-3.671,9.625,8.2,22.757,16.075,39.7,22.121L288.425,145.5a8.35,8.35,0,0,1-.394,5.991l-4.9,10.2a13.155,13.155,0,0,0-4.722,1.789l-9.653,6.217a5.723,5.723,0,0,1-3.1.928H254.514a13,13,0,0,0-4.344.831,11.529,11.529,0,0,0-4.185-4.379L130.77,98.731c-5.363-3.182-12.091-.922-15.032,5.075L39.091,264.541c-2.871,6.016-.833,13.516,4.547,16.7L158.9,349.581c5.489,3.249,12.151.867,14.978-5.063l40.019-83.9,2.575,4.971a7.542,7.542,0,0,1,.827,3.451v12.429a17.121,17.121,0,0,0,3.66,10.548l-40.655,85.229a6.4,6.4,0,0,1-9.171,3.035L13.924,287.09a8.085,8.085,0,0,1-2.8-10.236ZM227.238,51.361c4.974,2.95,7.823,9.3,6.388,15.959-5.555-6.144-8.513-12.068-8.508-16.875A12.36,12.36,0,0,1,227.238,51.361Zm2,23.795a11.75,11.75,0,0,1-14.063,1.5c-6.3-3.732-8.623-12.386-5.3-19.336a13.276,13.276,0,0,1,7.083-6.773C217.043,58.4,221.464,66.96,229.238,75.156Z" transform="translate(-2.13 -3.313)" fill="#f9b11c"/>
      <path id="Path_2" data-name="Path 2" d="M43.949,43.177a9.93,9.93,0,1,0,9.93-9.93A9.941,9.941,0,0,0,43.949,43.177Zm18.359,0a8.43,8.43,0,1,1-8.43-8.43A8.44,8.44,0,0,1,62.308,43.177Z" transform="translate(292.271 219.358)" fill="#f9b11c"/>
      <path id="Path_3" data-name="Path 3" d="M52.416,39.093,51.7,40.538l-1.593.232a1.63,1.63,0,0,0-.9,2.781l1.153,1.124-.272,1.588a1.632,1.632,0,0,0,2.367,1.719l1.425-.75,1.426.75a1.631,1.631,0,0,0,2.365-1.72L57.4,44.675l1.153-1.124a1.631,1.631,0,0,0-.9-2.781l-1.594-.231-.713-1.445A1.631,1.631,0,0,0,52.416,39.093Zm1.579.663h0l.822,1.666a1.027,1.027,0,0,0,.773.564l1.841.268a.13.13,0,0,1,.072.223l-1.33,1.3a1.032,1.032,0,0,0-.3.909l.314,1.833a.13.13,0,0,1-.188.138l-1.647-.866a1.033,1.033,0,0,0-.955,0l-1.645.866a.13.13,0,0,1-.19-.138l.314-1.831a1.027,1.027,0,0,0-.295-.91l-1.332-1.3a.13.13,0,0,1,.072-.223l1.847-.269a1.029,1.029,0,0,0,.767-.561l.823-1.668a.13.13,0,0,1,.234,0Z" transform="translate(292.271 208.112)" fill="#f9b11c"/>
      <path id="Path_4" data-name="Path 4" d="M26.666,41.409a.749.749,0,0,0,1.044-.185l6.5-9.3a.75.75,0,0,0-1.229-.859l-6.5,9.3a.75.75,0,0,0,.185,1.044Z" transform="translate(121.336 165.584)" fill="#f9b11c"/>
      <path id="Path_5" data-name="Path 5" d="M37.068,36.314a2.956,2.956,0,1,0,.55,4.142,2.949,2.949,0,0,0-.55-4.142Zm-.642,3.231a1.456,1.456,0,1,1-2.313-1.769,1.456,1.456,0,0,1,2.313,1.769Z" transform="translate(146.385 179.131)" fill="#f9b11c"/>
      <path id="Path_6" data-name="Path 6" d="M26.169,36.142A2.955,2.955,0,0,0,28.7,32.828h0a2.956,2.956,0,1,0-2.535,3.315Zm-.583-4.375a1.457,1.457,0,1,1-1.257,1.642,1.459,1.459,0,0,1,1.257-1.642Z" transform="translate(99.667 148.453)" fill="#f9b11c"/>
      <path id="Path_7" data-name="Path 7" d="M33.393,49.079,17.463,41.2a.75.75,0,0,0-.666,1.344l15.93,7.882a.75.75,0,1,0,.666-1.344Z" transform="translate(84.708 223.33)" fill="#f9b11c"/>
      <path id="Path_8" data-name="Path 8" d="M26.939,50.693,15.06,44.815a.75.75,0,0,0-.666,1.344l11.879,5.878a.75.75,0,0,0,.666-1.344Z" transform="translate(64.479 236.133)" fill="#f9b11c"/>
    </g>
  </g>
</svg>
