<svg xmlns="http://www.w3.org/2000/svg" width="512" height="319.95" viewBox="0 0 512 319.95">
  <g id="Group_27" data-name="Group 27" transform="translate(0 -95.9)">
    <path id="Path_12" data-name="Path 12" d="M104,336a24,24,0,1,0,24,24A24.071,24.071,0,0,0,104,336Zm0,32a8,8,0,1,1,8-8A8.024,8.024,0,0,1,104,368Z" fill="#f9b11c"/>
    <path id="Path_13" data-name="Path 13" d="M408,336a24,24,0,1,0,24,24A24.071,24.071,0,0,0,408,336Zm0,32a8,8,0,1,1,8-8A8.024,8.024,0,0,1,408,368Z" fill="#f9b11c"/>
    <path id="Path_14" data-name="Path 14" d="M504,336V281.3a32.044,32.044,0,0,0-21.9-30.4L454,241.5,429.4,180a31.82,31.82,0,0,0-29.7-20.1H328v-40a24.071,24.071,0,0,0-24-24H32a24.071,24.071,0,0,0-24,24V336a8.983,8.983,0,0,0-8,8.9v15a24.071,24.071,0,0,0,24,24H53.4c20.3,42.5,80.8,42.7,101.2,0H357.4c20.3,42.5,80.8,42.7,101.2,0H488a24.071,24.071,0,0,0,24-24v-16A8,8,0,0,0,504,336ZM399.8,176a15.925,15.925,0,0,1,14.9,10.1l26,64.9a7.963,7.963,0,0,0,4.9,4.6l31.6,10.5a16.043,16.043,0,0,1,10.9,15.2V304h-8a8,8,0,0,0,0,16h8v16H458.7c-20.3-42.5-80.8-42.7-101.2,0H328V176ZM32,112H304a8.024,8.024,0,0,1,8,8V336H154.6c-20.3-42.5-80.8-42.7-101.2,0H24V120A8.024,8.024,0,0,1,32,112ZM24,368a8.024,8.024,0,0,1-8-8v-8H48.6a53.633,53.633,0,0,0,0,16Zm80,32a40.168,40.168,0,0,1-37.1-25,7.737,7.737,0,0,0-1.2-3.3,40.88,40.88,0,0,1,0-23.5,9.333,9.333,0,0,0,1.2-3.3,40.028,40.028,0,0,1,74.2,0,7.737,7.737,0,0,0,1.2,3.3,40.88,40.88,0,0,1,0,23.5,9.333,9.333,0,0,0-1.2,3.3A40.12,40.12,0,0,1,104,400Zm55.4-32a53.633,53.633,0,0,0,0-16H352.6a53.634,53.634,0,0,0,0,16ZM408,400a40.168,40.168,0,0,1-37.1-25,7.737,7.737,0,0,0-1.2-3.3,40.88,40.88,0,0,1,0-23.5,9.334,9.334,0,0,0,1.2-3.3,40.028,40.028,0,0,1,74.2,0,7.737,7.737,0,0,0,1.2,3.3,40.88,40.88,0,0,1,0,23.5,9.334,9.334,0,0,0-1.2,3.3A40.017,40.017,0,0,1,408,400Zm88-40a8.024,8.024,0,0,1-8,8H463.4a53.634,53.634,0,0,0,0-16H496Z" fill="#f9b11c"/>
    <path id="Path_15" data-name="Path 15" d="M352,256h56a8,8,0,0,0,7.6-10.5l-16-48A7.955,7.955,0,0,0,392,192H352a8.024,8.024,0,0,0-8,8v48A8.024,8.024,0,0,0,352,256Zm8-48h26.2l10.7,32H360Z" fill="#f9b11c"/>
    <path id="Path_16" data-name="Path 16" d="M368,272H352a8,8,0,0,0,0,16h16a8,8,0,0,0,0-16Z" fill="#f9b11c"/>
    <path id="Path_17" data-name="Path 17" d="M72,264h72v16a8.024,8.024,0,0,0,8,8H264a8.024,8.024,0,0,0,8-8V168a8.024,8.024,0,0,0-8-8H152a8.024,8.024,0,0,0-8,8v16H120a8,8,0,0,0,0,16h24v16H104a8,8,0,0,0,0,16h40v16H72a8,8,0,0,0,0,16Zm144-88v16H200V176Zm-56,0h24v24a8.024,8.024,0,0,0,8,8h32a8.024,8.024,0,0,0,8-8V176h24v96H160Z" fill="#f9b11c"/>
  </g>
</svg>
