<svg xmlns="http://www.w3.org/2000/svg" width="412.351" height="412.343" viewBox="0 0 412.351 412.343">
  <g id="Group_28" data-name="Group 28" transform="translate(-1 -1.001)">
    <g id="Layer_14" data-name="Layer 14" transform="translate(1 1.001)">
      <path id="Path_18" data-name="Path 18" d="M24.3,190.27H11V24H290.334V143.715h-13.3V37.3H24.3Z" transform="translate(55.508 128.961)" fill="#f9b11c"/>
      <path id="Path_19" data-name="Path 19" d="M290.334,90.508H11V24H290.334ZM24.3,77.207H277.033V37.3H24.3Z" transform="translate(55.508 128.961)" fill="#f9b11c"/>
      <path id="Path_20" data-name="Path 20" d="M11,28H290.334V41.3H11Z" transform="translate(55.508 151.564)" fill="#f9b11c"/>
      <path id="Path_21" data-name="Path 21" d="M241.128,67.207H15V14H241.128ZM28.3,53.9H227.826V27.3H28.3Z" transform="translate(78.111 72.453)" fill="#f9b11c"/>
      <path id="Path_22" data-name="Path 22" d="M1,61H413.351V74.3H1Z" transform="translate(-1 338.041)" fill="#f9b11c"/>
      <path id="Path_23" data-name="Path 23" d="M113.413,153.413H7V47H113.413ZM20.3,140.111h79.81V60.3H20.3Z" transform="translate(32.905 258.93)" fill="#f9b11c"/>
      <path id="Path_24" data-name="Path 24" d="M18,58h6.651v6.651H18Z" transform="translate(95.064 321.089)" fill="#f9b11c"/>
      <path id="Path_25" data-name="Path 25" d="M16,58h6.651v6.651H16Z" transform="translate(83.762 321.089)" fill="#f9b11c"/>
      <path id="Path_26" data-name="Path 26" d="M78.6,108.207a26.6,26.6,0,1,1,26.6-26.6A26.6,26.6,0,0,1,78.6,108.207Zm0-39.9A13.3,13.3,0,1,0,91.9,81.6,13.3,13.3,0,0,0,78.6,68.3Z" transform="translate(287.192 304.136)" fill="#f9b11c"/>
      <path id="Path_27" data-name="Path 27" d="M59.6,108.207a26.6,26.6,0,1,1,26.6-26.6A26.6,26.6,0,0,1,59.6,108.207Zm0-39.9A13.3,13.3,0,1,0,72.9,81.6,13.3,13.3,0,0,0,59.6,68.3Z" transform="translate(179.826 304.136)" fill="#f9b11c"/>
      <path id="Path_28" data-name="Path 28" d="M139.413,143.413H33V37H139.413ZM46.3,130.111h79.81V50.3H46.3Z" transform="translate(179.826 202.421)" fill="#f9b11c"/>
      <path id="Path_29" data-name="Path 29" d="M44,48h6.651v6.651H44Z" transform="translate(241.985 264.58)" fill="#f9b11c"/>
      <path id="Path_30" data-name="Path 30" d="M42,48h6.651v6.651H42Z" transform="translate(230.684 264.58)" fill="#f9b11c"/>
      <path id="Path_31" data-name="Path 31" d="M51.9,93.556H12V47H51.9Zm-26.6-13.3H38.6V60.3H25.3Z" transform="translate(61.159 258.93)" fill="#f9b11c"/>
      <path id="Path_32" data-name="Path 32" d="M77.9,83.556H38V37H77.9Zm-26.6-13.3H64.6V50.3H51.3Z" transform="translate(208.08 202.421)" fill="#f9b11c"/>
      <path id="Path_33" data-name="Path 33" d="M103.746,85.9H59.651A6.651,6.651,0,0,1,53,79.254v-26.6A6.651,6.651,0,0,1,59.651,46H93.77A6.651,6.651,0,0,1,100,50.31l9.976,26.6a6.651,6.651,0,0,1-6.232,8.992ZM66.3,72.6H94.149L89.161,59.3H66.3Z" transform="translate(292.843 253.279)" fill="#f9b11c"/>
      <path id="Path_34" data-name="Path 34" d="M242.826,156.064H222.874v-13.3h6.651V104.068L211.614,56.3h-35.3v53.207H43.3v33.254H56.6v13.3H30V96.207H163.016V43h57.816l21.994,58.647Z" transform="translate(162.874 236.326)" fill="#f9b11c"/>
      <path id="Path_35" data-name="Path 35" d="M40,58h86.461V71.3H40Z" transform="translate(219.382 321.089)" fill="#f9b11c"/>
      <ellipse id="Ellipse_1" data-name="Ellipse 1" cx="7" cy="6.5" rx="7" ry="6.5" transform="translate(233 379)" fill="#f9b11c"/>
      <circle id="Ellipse_2" data-name="Ellipse 2" cx="6.5" cy="6.5" r="6.5" transform="translate(359 379)" fill="#f9b11c"/>
      <path id="Path_36" data-name="Path 36" d="M356.493,273.677V98.215L190.17,15.053,17.3,98.281V406.693a6.651,6.651,0,0,1-13.3,0V94.1a6.651,6.651,0,0,1,3.764-5.986L187.336,1.658A6.651,6.651,0,0,1,193.2,1.7L366.117,88.165A6.651,6.651,0,0,1,369.8,94.1V273.677Z" transform="translate(15.952 -1.001)" fill="#f9b11c"/>
    </g>
  </g>
</svg>
