<svg xmlns="http://www.w3.org/2000/svg" width="511.999" height="323.873" viewBox="0 0 511.999 323.873">
  <g id="Group_13" data-name="Group 13" transform="translate(0 -94.062)">
    <g id="Group_2" data-name="Group 2">
      <g id="Group_1" data-name="Group 1">
        <path id="Path_1" data-name="Path 1" d="M476.158,231.363,462.9,178.328a8.018,8.018,0,0,0,6.345-7.839v-8.551a33.708,33.708,0,0,0-33.67-33.67H375.182V110.63a16.586,16.586,0,0,0-16.568-16.568H50.772A16.586,16.586,0,0,0,34.2,110.63V256a8.017,8.017,0,0,0,16.034,0V110.63a.534.534,0,0,1,.534-.534H358.613a.534.534,0,0,1,.534.534V256a8.017,8.017,0,0,0,16.034,0v-9.088H469.75l.021,0h.022A26.234,26.234,0,0,1,494.7,265.086H469.777a8.017,8.017,0,0,0-8.017,8.017v17.1a25.147,25.147,0,0,0,25.119,25.119h9.086V350.6H475a50.757,50.757,0,0,0-95.964,0h-3.86V290.2a8.017,8.017,0,0,0-16.034,0v60.391H192.817a50.757,50.757,0,0,0-95.964,0H50.772a.534.534,0,0,1-.534-.534V332.424H84.977a8.017,8.017,0,0,0,0-16.034H8.017a8.017,8.017,0,1,0,0,16.034H34.205v17.637a16.586,16.586,0,0,0,16.568,16.568h43.3c0,.178-.014.355-.014.534a50.772,50.772,0,0,0,101.544,0c0-.18-.012-.356-.014-.534h180.67c0,.178-.014.355-.014.534a50.772,50.772,0,0,0,101.544,0c0-.18-.012-.356-.014-.534h26.2A8.017,8.017,0,0,0,512,358.612V273.1A42.285,42.285,0,0,0,476.158,231.363ZM375.182,144.3h60.392a17.657,17.657,0,0,1,17.637,17.637v.534H375.182Zm0,86.58V178.505h71.235l13.094,52.376H375.182ZM144.835,401.9a34.739,34.739,0,1,1,34.739-34.739A34.778,34.778,0,0,1,144.835,401.9Zm282.188,0a34.739,34.739,0,1,1,34.739-34.739A34.778,34.778,0,0,1,427.023,401.9ZM495.967,299.29h-9.086A9.1,9.1,0,0,1,477.8,290.2v-9.086h18.171V299.29Z" fill="#f9b11c"/>
      </g>
    </g>
    <g id="Group_4" data-name="Group 4">
      <g id="Group_3" data-name="Group 3">
        <path id="Path_2" data-name="Path 2" d="M144.835,350.6A16.568,16.568,0,1,0,161.4,367.165,16.586,16.586,0,0,0,144.835,350.6Z" fill="#f9b11c"/>
      </g>
    </g>
    <g id="Group_6" data-name="Group 6">
      <g id="Group_5" data-name="Group 5">
        <path id="Path_3" data-name="Path 3" d="M427.023,350.6a16.568,16.568,0,1,0,16.568,16.568A16.586,16.586,0,0,0,427.023,350.6Z" fill="#f9b11c"/>
      </g>
    </g>
    <g id="Group_8" data-name="Group 8">
      <g id="Group_7" data-name="Group 7">
        <path id="Path_4" data-name="Path 4" d="M332.96,316.393H213.244a8.017,8.017,0,0,0,0,16.034H332.96a8.017,8.017,0,1,0,0-16.034Z" fill="#f9b11c"/>
      </g>
    </g>
    <g id="Group_10" data-name="Group 10">
      <g id="Group_9" data-name="Group 9">
        <path id="Path_5" data-name="Path 5" d="M127.733,282.188H25.119a8.017,8.017,0,1,0,0,16.034H127.733a8.017,8.017,0,0,0,0-16.034Z" fill="#f9b11c"/>
      </g>
    </g>
    <g id="Group_12" data-name="Group 12">
      <g id="Group_11" data-name="Group 11">
        <path id="Path_6" data-name="Path 6" d="M278.771,173.37a8.017,8.017,0,0,0-11.337,0l-71.292,71.291-37.087-37.087a8.016,8.016,0,0,0-11.337,11.337l42.756,42.756a8.015,8.015,0,0,0,11.336,0l76.96-76.96A8.018,8.018,0,0,0,278.771,173.37Z" fill="#f9b11c"/>
      </g>
    </g>
  </g>
</svg>
