<svg id="Group_3" data-name="Group 3" xmlns="http://www.w3.org/2000/svg" width="512" height="512" viewBox="0 0 512 512">
  <g id="Group_2" data-name="Group 2">
    <g id="Group_1" data-name="Group 1">
      <path id="Path_1" data-name="Path 1" d="M508.945,150.429q-.043-.289-.11-.576a182.359,182.359,0,0,0-14.02-43.555,7.465,7.465,0,0,0-.7-1.506,184.256,184.256,0,0,0-21.73-34.818,7.523,7.523,0,0,0-1.141-1.481c-.061-.061-.128-.113-.191-.172A185.459,185.459,0,0,0,443,40.408c-.058-.062-.11-.127-.17-.188a7.5,7.5,0,0,0-1.524-1.166A184.226,184.226,0,0,0,406.372,17.5a7.4,7.4,0,0,0-1.491-.7A182.3,182.3,0,0,0,361.09,2.964q-.287-.064-.576-.107A184.49,184.49,0,0,0,303.1,1.711c-.026,0-.052.008-.079.011-77.654,10.656-140,69.979-155.191,146.117a183.124,183.124,0,0,0-56.726,21.52A7.515,7.515,0,0,0,98.7,182.33a167.9,167.9,0,0,1,46.687-18.586,184.411,184.411,0,0,0,1.746,52.459c.03.206.067.411.114.614a182.273,182.273,0,0,0,13.836,43.776,7.445,7.445,0,0,0,.7,1.5,184.289,184.289,0,0,0,21.553,34.936,7.5,7.5,0,0,0,1.167,1.524c.059.06.124.11.185.167A185.505,185.505,0,0,0,212.6,326.765c.059.063.111.129.172.19a7.506,7.506,0,0,0,1.479,1.14,184.249,184.249,0,0,0,34.819,21.731,7.436,7.436,0,0,0,1.506.7,182.312,182.312,0,0,0,43.562,14.022q.281.064.564.108a184.118,184.118,0,0,0,53.557,1.95c-17.457,74.618-84.542,130.358-164.4,130.358-93.093,0-168.83-75.737-168.83-168.83A167.287,167.287,0,0,1,67.981,205.351a7.515,7.515,0,1,0-10.317-10.929A183.358,183.358,0,0,0,0,328.141C0,429.522,82.48,512,183.86,512c89.054,0,163.513-63.644,180.306-147.835,76.583-15.276,136.161-78.266,146.3-156.554.005-.046.015-.091.019-.136a184.745,184.745,0,0,0-1.543-57.046ZM465.1,85.258a169.146,169.146,0,0,1,13.453,21.97L345.392,240.39a184.487,184.487,0,0,0-13.821-21.6Zm-9.388-11.869L322.072,207.03a185.186,185.186,0,0,0-17.749-17.675L437.951,55.728A170.4,170.4,0,0,1,455.713,73.389Zm-29.676-27L292.507,179.916a184.43,184.43,0,0,0-21.69-13.733L403.958,33.041A169.007,169.007,0,0,1,426.037,46.385ZM361.9,18.422a167.411,167.411,0,0,1,27.362,8.061L256.492,159.25a182.374,182.374,0,0,0-26.356-9.067Zm-54.569-2.109a169.64,169.64,0,0,1,20.813-1.284c5.124,0,10.192.242,15.2.691l-130.8,130.8a184.525,184.525,0,0,0-28.681-2.241c-1.527,0-3.052.038-4.576.076ZM280.5,21.885,166.167,136.219A169.528,169.528,0,0,1,280.5,21.885ZM160,199.062c-.45-5.011-.692-10.079-.692-15.2a169.639,169.639,0,0,1,1.284-20.813l2.431-2.431a169.337,169.337,0,0,1,20.834-1.3c5.124,0,10.192.242,15.2.691Zm2.7,18.553L217.615,162.7a167.185,167.185,0,0,1,27.362,8.061l-74.213,74.214A167.433,167.433,0,0,1,162.7,217.615Zm27.964,64.14a169.036,169.036,0,0,1-13.345-22.079l82.354-82.354a169.147,169.147,0,0,1,22.079,13.345Zm9.342,11.914,93.659-93.659a170.5,170.5,0,0,1,17.762,17.661L217.672,311.43A170.3,170.3,0,0,1,200.01,293.669Zm29.53,27.149,91.279-91.278a169.025,169.025,0,0,1,13.453,21.969l-82.764,82.764A169.349,169.349,0,0,1,229.54,320.818Zm63.838,28.264a167.22,167.22,0,0,1-27.237-8.187L340.9,266.141a167.422,167.422,0,0,1,8.187,27.237Zm58.186-1.507-3.988,3.988a169.709,169.709,0,0,1-19.435,1.126c-5.506,0-10.949-.274-16.322-.792L351.9,311.819c.518,5.372.792,10.815.792,16.322A169.685,169.685,0,0,1,351.564,347.575Zm9.993-66.671a182.421,182.421,0,0,0-9.179-26.244l132.8-132.8a167.338,167.338,0,0,1,8.186,27.236Zm12.5,65.438L490.625,229.77A169.516,169.516,0,0,1,374.054,346.342ZM495.846,203.293,367.677,331.462c.02-1.106.042-2.211.042-3.322a184.294,184.294,0,0,0-2.416-29.727L496.18,167.537c.518,5.372.792,10.815.792,16.322A170.129,170.129,0,0,1,495.846,203.293Z" fill="#f9b11c"/>
    </g>
  </g>
</svg>
